<svg xmlns="http://www.w3.org/2000/svg" width="378" height="397" viewBox="0 0 378 397" version="1.1"><path d="M 182.750 1.743 C 186.738 1.932, 193.262 1.932, 197.250 1.743 C 201.238 1.553, 197.975 1.397, 190 1.397 C 182.025 1.397, 178.762 1.553, 182.750 1.743 M 167.762 2.707 C 169.006 2.946, 170.806 2.937, 171.762 2.687 C 172.718 2.437, 171.700 2.241, 169.500 2.252 C 167.300 2.263, 166.518 2.468, 167.762 2.707 M 208.250 2.689 C 209.213 2.941, 210.787 2.941, 211.750 2.689 C 212.713 2.438, 211.925 2.232, 210 2.232 C 208.075 2.232, 207.287 2.438, 208.250 2.689 M 161.269 3.693 C 162.242 3.947, 163.592 3.930, 164.269 3.656 C 164.946 3.382, 164.150 3.175, 162.500 3.195 C 160.850 3.215, 160.296 3.439, 161.269 3.693 M 216.269 3.693 C 217.242 3.947, 218.592 3.930, 219.269 3.656 C 219.946 3.382, 219.150 3.175, 217.500 3.195 C 215.850 3.215, 215.296 3.439, 216.269 3.693 M 155.750 4.662 C 156.438 4.940, 157.563 4.940, 158.250 4.662 C 158.938 4.385, 158.375 4.158, 157 4.158 C 155.625 4.158, 155.063 4.385, 155.750 4.662 M 221.750 4.662 C 222.438 4.940, 223.563 4.940, 224.250 4.662 C 224.938 4.385, 224.375 4.158, 223 4.158 C 221.625 4.158, 221.063 4.385, 221.750 4.662 M 150.750 5.662 C 151.438 5.940, 152.563 5.940, 153.250 5.662 C 153.938 5.385, 153.375 5.158, 152 5.158 C 150.625 5.158, 150.063 5.385, 150.750 5.662 M 226.750 5.662 C 227.438 5.940, 228.563 5.940, 229.250 5.662 C 229.938 5.385, 229.375 5.158, 228 5.158 C 226.625 5.158, 226.063 5.385, 226.750 5.662 M 242.500 9.984 C 279.490 22.413, 310.868 45.853, 331.400 76.395 C 337.611 85.633, 346.678 102.582, 349.523 110.272 C 350.494 112.897, 351.465 114.868, 351.681 114.652 C 352.297 114.037, 348.272 104.357, 343.325 94.556 C 327.501 63.201, 300.994 36.653, 269 20.116 C 257.909 14.384, 241.257 7.955, 234 6.604 C 232.075 6.246, 235.900 7.767, 242.500 9.984 M 133.500 10.103 C 92.424 23.762, 54.054 57.758, 34.859 97.500 C 32.202 103, 30.030 107.950, 30.032 108.500 C 30.034 109.050, 32.623 104.325, 35.784 98 C 56.754 56.041, 91.473 25.592, 135.500 10.547 C 141 8.667, 144.825 7.125, 144 7.120 C 143.175 7.115, 138.450 8.457, 133.500 10.103 M 177 76.560 C 161.318 79.940, 148.046 90.090, 141.187 103.948 C 137.565 111.265, 137.501 111.600, 137.554 122.948 C 137.585 129.478, 138.112 135.587, 138.767 137 C 139.762 139.145, 139.825 138.862, 139.213 135 C 138.821 132.525, 138.508 126.225, 138.517 121 C 138.533 112.415, 138.843 110.846, 141.732 104.712 C 151.176 84.666, 175.394 72.765, 198.114 77.005 C 209.114 79.058, 219.783 86.372, 227.281 97 L 229.045 99.500 227.622 96.493 C 225.573 92.160, 216.869 83.791, 211.210 80.711 C 201.074 75.194, 189.726 73.817, 177 76.560 M 177.692 98.910 C 163.686 104.563, 157.427 116.638, 161.407 130.329 C 164.665 141.534, 172.062 146.794, 186.215 147.966 C 193.459 148.566, 195.493 149.114, 197.510 151.009 C 202.027 155.253, 201.630 163.242, 196.699 167.317 L 194.500 169.134 196.740 168.037 C 199.590 166.642, 202 162.012, 202 157.932 C 202 155.602, 201.009 153.778, 198.250 151.033 C 194.670 147.471, 194.127 147.276, 186.263 146.746 C 171.869 145.776, 165.505 141.035, 162.417 128.982 C 161.031 123.572, 160.965 121.718, 161.992 117.039 C 164.163 107.152, 176.184 98, 187 98 C 196.845 98, 205.424 104.397, 209.149 114.514 C 211.153 119.956, 211.391 122.798, 211.765 145.790 C 212.114 167.209, 211.945 171.435, 210.659 173.398 C 209.262 175.530, 208.239 175.760, 197.820 176.279 C 178.512 177.240, 164.212 182.628, 154.080 192.760 C 149.040 197.800, 143.963 205, 145.449 205 C 145.724 205, 146.649 203.646, 147.504 201.992 C 150.247 196.689, 159.564 188.493, 167.190 184.676 C 177.117 179.707, 184.427 177.946, 197.896 177.275 C 214.382 176.455, 213.223 178.873, 212.792 146.178 C 212.464 121.267, 212.291 119.125, 210.179 113.833 C 207.281 106.568, 204.917 103.622, 199.387 100.381 C 193.324 96.828, 184.357 96.220, 177.692 98.910 M 231.086 104.500 C 231.190 106.394, 232.856 109.584, 232.914 108 C 232.945 107.175, 232.533 105.825, 232 105 C 231.467 104.175, 231.055 103.950, 231.086 104.500 M 28.111 113.111 C 27.495 114.878, 27.166 116.499, 27.380 116.713 C 27.594 116.927, 28.273 115.656, 28.889 113.889 C 29.505 112.122, 29.834 110.501, 29.620 110.287 C 29.406 110.073, 28.727 111.344, 28.111 113.111 M 234.158 116 C 234.158 117.375, 234.385 117.938, 234.662 117.250 C 234.940 116.563, 234.940 115.438, 234.662 114.750 C 234.385 114.063, 234.158 114.625, 234.158 116 M 235.232 122 C 235.232 123.925, 235.438 124.713, 235.689 123.750 C 235.941 122.787, 235.941 121.213, 235.689 120.250 C 235.438 119.287, 235.232 120.075, 235.232 122 M 24.571 123.571 C 24.204 125.037, 24.096 126.429, 24.331 126.665 C 24.567 126.900, 25.061 125.894, 25.429 124.429 C 25.796 122.963, 25.904 121.571, 25.669 121.335 C 25.433 121.100, 24.939 122.106, 24.571 123.571 M 236.286 132.500 C 236.294 135.250, 236.488 136.256, 236.718 134.736 C 236.947 133.216, 236.941 130.966, 236.704 129.736 C 236.467 128.506, 236.279 129.750, 236.286 132.500 M 358.158 139 C 358.158 140.375, 358.385 140.938, 358.662 140.250 C 358.940 139.563, 358.940 138.438, 358.662 137.750 C 358.385 137.063, 358.158 137.625, 358.158 139 M 140.048 140.283 C 140.022 140.714, 141.162 143.360, 142.583 146.164 C 145.588 152.095, 153.212 160.082, 158.098 162.418 C 161.415 164.005, 161.438 164.001, 159 162.281 C 152.927 157.997, 145.554 150.065, 142.938 145.001 C 141.375 141.975, 140.075 139.852, 140.048 140.283 M 20.158 143 C 20.158 144.375, 20.385 144.938, 20.662 144.250 C 20.940 143.563, 20.940 142.438, 20.662 141.750 C 20.385 141.063, 20.158 141.625, 20.158 143 M 359.195 144.500 C 359.215 146.150, 359.439 146.704, 359.693 145.731 C 359.947 144.758, 359.930 143.408, 359.656 142.731 C 359.382 142.054, 359.175 142.850, 359.195 144.500 M 19.232 149 C 19.232 150.925, 19.438 151.713, 19.689 150.750 C 19.941 149.787, 19.941 148.213, 19.689 147.250 C 19.438 146.287, 19.232 147.075, 19.232 149 M 360.232 151 C 360.232 152.925, 360.438 153.713, 360.689 152.750 C 360.941 151.787, 360.941 150.213, 360.689 149.250 C 360.438 148.287, 360.232 149.075, 360.232 151 M 18.286 157.500 C 18.294 160.250, 18.488 161.256, 18.718 159.736 C 18.947 158.216, 18.941 155.966, 18.704 154.736 C 18.467 153.506, 18.279 154.750, 18.286 157.500 M 361.310 161.500 C 361.315 164.800, 361.502 166.029, 361.725 164.232 C 361.947 162.435, 361.943 159.735, 361.715 158.232 C 361.486 156.729, 361.304 158.200, 361.310 161.500 M 165 166 C 165.825 166.533, 166.950 166.969, 167.500 166.969 C 168.050 166.969, 167.825 166.533, 167 166 C 166.175 165.467, 165.050 165.031, 164.500 165.031 C 163.950 165.031, 164.175 165.467, 165 166 M 17.328 173.500 C 17.333 177.350, 17.513 178.802, 17.730 176.728 C 17.946 174.653, 17.943 171.503, 17.722 169.728 C 17.501 167.952, 17.324 169.650, 17.328 173.500 M 236.252 171.500 C 236.263 173.700, 236.468 174.482, 236.707 173.238 C 236.946 171.994, 236.937 170.194, 236.687 169.238 C 236.437 168.282, 236.241 169.300, 236.252 171.500 M 181.750 169.732 C 184.088 169.943, 187.912 169.943, 190.250 169.732 C 192.588 169.522, 190.675 169.349, 186 169.349 C 181.325 169.349, 179.412 169.522, 181.750 169.732 M 235.158 178 C 235.158 179.375, 235.385 179.938, 235.662 179.250 C 235.940 178.563, 235.940 177.438, 235.662 176.750 C 235.385 176.063, 235.158 176.625, 235.158 178 M 361.310 185.500 C 361.315 188.800, 361.502 190.029, 361.725 188.232 C 361.947 186.435, 361.943 183.735, 361.715 182.232 C 361.486 180.729, 361.304 182.200, 361.310 185.500 M 232.999 184.002 C 231.115 188.550, 223.477 194.781, 217.672 196.505 C 214.903 197.327, 208.955 198, 204.455 198 C 189.961 198, 179.359 201.233, 171.645 208.006 C 162.345 216.173, 160.379 230.518, 167.223 240.273 C 169.073 242.909, 176.706 247.627, 177.629 246.704 C 177.868 246.465, 176.698 245.703, 175.027 245.011 C 161.464 239.393, 160.727 217.293, 173.772 207.343 C 180.858 201.939, 187.910 199.926, 201.981 199.290 C 216.350 198.642, 222.523 196.839, 228.151 191.650 C 231.694 188.383, 235.598 182.265, 234.708 181.375 C 234.467 181.133, 233.698 182.316, 232.999 184.002 M 18.286 188.500 C 18.294 191.250, 18.488 192.256, 18.718 190.736 C 18.947 189.216, 18.941 186.966, 18.704 185.736 C 18.467 184.506, 18.279 185.750, 18.286 188.500 M 360.232 196 C 360.232 197.925, 360.438 198.713, 360.689 197.750 C 360.941 196.787, 360.941 195.213, 360.689 194.250 C 360.438 193.287, 360.232 194.075, 360.232 196 M 19.195 197.500 C 19.215 199.150, 19.439 199.704, 19.693 198.731 C 19.947 197.758, 19.930 196.408, 19.656 195.731 C 19.382 195.054, 19.175 195.850, 19.195 197.500 M 359.195 202.500 C 359.215 204.150, 359.439 204.704, 359.693 203.731 C 359.947 202.758, 359.930 201.408, 359.656 200.731 C 359.382 200.054, 359.175 200.850, 359.195 202.500 M 20.158 204 C 20.158 205.375, 20.385 205.938, 20.662 205.250 C 20.940 204.563, 20.940 203.438, 20.662 202.750 C 20.385 202.063, 20.158 202.625, 20.158 204 M 142.625 209.979 C 141.731 212.213, 141.015 214.819, 141.033 215.770 C 141.051 216.722, 141.918 215.030, 142.960 212.011 C 145.194 205.539, 144.963 204.137, 142.625 209.979 M 358.158 208 C 358.158 209.375, 358.385 209.938, 358.662 209.250 C 358.940 208.563, 358.940 207.438, 358.662 206.750 C 358.385 206.063, 358.158 206.625, 358.158 208 M 21.199 208.500 C 21.199 209.600, 21.560 211.625, 22 213 C 22.634 214.980, 22.801 215.084, 22.801 213.500 C 22.801 212.400, 22.440 210.375, 22 209 C 21.366 207.020, 21.199 206.916, 21.199 208.500 M 228.264 208.718 C 229.784 208.947, 232.034 208.941, 233.264 208.704 C 234.494 208.467, 233.250 208.279, 230.500 208.286 C 227.750 208.294, 226.744 208.488, 228.264 208.718 M 221.537 211.372 C 219.385 213.524, 217.020 219.495, 217.006 222.812 C 216.995 225.365, 212.006 234.633, 208.334 238.923 C 206.276 241.327, 202.350 244.325, 199.556 245.626 C 196.775 246.921, 195.080 247.985, 195.790 247.990 C 198.495 248.011, 204.753 243.991, 208.724 239.684 C 214.601 233.308, 217.206 227.740, 219.495 216.665 C 219.817 215.105, 221.253 212.743, 222.686 211.415 C 224.120 210.087, 224.981 209, 224.601 209 C 224.220 209, 222.842 210.068, 221.537 211.372 M 238.226 211.465 C 241.866 215.150, 242.509 219.436, 240.578 227.130 C 234.161 252.698, 213.816 269.920, 189.960 269.979 C 176.169 270.013, 162.939 265.535, 153 257.468 L 148.500 253.816 153 258.018 C 160.704 265.212, 172.495 270.156, 185.115 271.484 C 193.443 272.360, 204.069 270.138, 212.265 265.806 C 220.248 261.587, 231.555 250.321, 235.657 242.500 C 239.290 235.575, 243 224.127, 243 219.845 C 243 215.996, 240.552 211.360, 237.740 209.882 C 235.793 208.859, 235.856 209.066, 238.226 211.465 M 23.141 217 C 23.141 217.825, 23.527 219.400, 24 220.500 C 24.542 221.761, 24.859 221.945, 24.859 221 C 24.859 220.175, 24.473 218.600, 24 217.500 C 23.458 216.239, 23.141 216.055, 23.141 217 M 140.349 226 C 140.349 230.675, 140.522 232.588, 140.732 230.250 C 140.943 227.912, 140.943 224.088, 140.732 221.750 C 140.522 219.412, 140.349 221.325, 140.349 226 M 352.714 227.214 C 351.804 230.062, 351.225 232.558, 351.427 232.761 C 351.630 232.964, 352.563 230.821, 353.500 228 C 354.437 225.179, 355.016 222.683, 354.787 222.454 C 354.558 222.224, 353.625 224.367, 352.714 227.214 M 25.506 225.423 C 26.746 231.279, 34.226 248.733, 39.467 258 C 53.902 283.522, 77.114 307.172, 102.248 321.965 C 110.574 326.866, 126.861 334.473, 127.550 333.783 C 127.755 333.579, 124.902 332.114, 121.211 330.529 C 79.070 312.429, 46.552 277.936, 28.795 232.500 C 26.645 227, 25.165 223.815, 25.506 225.423 M 347.097 241.914 C 343.138 251.504, 333.519 267.833, 325.797 278.076 C 317.810 288.669, 299.250 306.293, 287.991 313.976 C 282.771 317.538, 273.550 323.040, 267.500 326.203 C 261.450 329.365, 256.874 331.964, 257.330 331.976 C 259.177 332.029, 280.040 320.720, 287.207 315.782 C 297.788 308.492, 305.821 301.343, 317.277 289.018 C 328.432 277.017, 335.969 266.541, 342.382 254.123 C 347.081 245.022, 351.318 234.984, 350.714 234.381 C 350.517 234.184, 348.889 237.574, 347.097 241.914 M 141.158 237 C 141.158 238.375, 141.385 238.938, 141.662 238.250 C 141.940 237.563, 141.940 236.438, 141.662 235.750 C 141.385 235.063, 141.158 235.625, 141.158 237 M 143 243.373 C 143 244.599, 146.928 251.837, 147.929 252.456 C 148.455 252.781, 147.710 250.899, 146.274 248.274 C 143.305 242.847, 143 242.391, 143 243.373 M 185.768 248.725 C 187.565 248.947, 190.265 248.943, 191.768 248.715 C 193.271 248.486, 191.800 248.304, 188.500 248.310 C 185.200 248.315, 183.971 248.502, 185.768 248.725 M 253 333 C 252.175 333.533, 251.950 333.969, 252.500 333.969 C 253.050 333.969, 254.175 333.533, 255 333 C 255.825 332.467, 256.050 332.031, 255.500 332.031 C 254.950 332.031, 253.825 332.467, 253 333 M 130 335 C 130.825 335.533, 131.950 335.969, 132.500 335.969 C 133.050 335.969, 132.825 335.533, 132 335 C 131.175 334.467, 130.050 334.031, 129.500 334.031 C 128.950 334.031, 129.175 334.467, 130 335 M 241.500 337.085 C 238.750 338.147, 237.800 338.762, 239.390 338.453 C 242.534 337.842, 249.124 335.166, 247.500 335.159 C 246.950 335.157, 244.250 336.024, 241.500 337.085 M 145.500 340 C 146.600 340.473, 148.400 340.846, 149.500 340.830 C 151.108 340.806, 151.010 340.644, 149 340 C 145.581 338.905, 142.952 338.905, 145.500 340 M 221.500 342 C 218.805 342.686, 218.754 342.765, 221 342.782 C 222.375 342.792, 224.625 342.440, 226 342 C 227.959 341.373, 228.067 341.203, 226.500 341.218 C 225.400 341.228, 223.150 341.580, 221.500 342 M 156.750 342.662 C 157.438 342.940, 158.563 342.940, 159.250 342.662 C 159.938 342.385, 159.375 342.158, 158 342.158 C 156.625 342.158, 156.063 342.385, 156.750 342.662 M 163.269 343.693 C 164.242 343.947, 165.592 343.930, 166.269 343.656 C 166.946 343.382, 166.150 343.175, 164.500 343.195 C 162.850 343.215, 162.296 343.439, 163.269 343.693 M 213.250 343.689 C 214.213 343.941, 215.787 343.941, 216.750 343.689 C 217.713 343.438, 216.925 343.232, 215 343.232 C 213.075 343.232, 212.287 343.438, 213.250 343.689 M 173.500 345.141 C 176.800 345.494, 184 345.783, 189.500 345.783 C 195 345.783, 202.200 345.494, 205.500 345.141 C 208.800 344.789, 201.600 344.500, 189.500 344.500 C 177.400 344.500, 170.200 344.789, 173.500 345.141" stroke="none" fill="#c2ecd4" fill-rule="evenodd"/><path d="M 170.500 2.622 C 148.891 5.817, 133.343 10.387, 116 18.643 C 37.763 55.884, -0.251 145.189, 27.098 227.500 C 31.140 239.664, 40.475 258.615, 47.626 269.172 C 82.496 320.651, 142.064 349.353, 203.335 344.197 C 234.561 341.569, 259.817 332.680, 286.590 314.895 C 301.649 304.892, 321.866 284.650, 331.774 269.655 C 358.270 229.556, 367.252 184.570, 357.934 138.629 C 352.261 110.654, 337.839 81.782, 318.473 59.632 C 294.881 32.647, 259.689 12.422, 223.151 4.852 C 215.884 3.346, 208.559 2.769, 193.500 2.515 C 182.500 2.330, 172.150 2.378, 170.500 2.622 M 177 76.560 C 161.446 79.913, 148.039 90.106, 141.315 103.689 C 138.284 109.811, 137.681 112.187, 137.255 119.689 C 135.590 148.952, 156.036 169.919, 186.300 169.985 C 194.205 170.002, 198.281 168.292, 200.483 164.033 C 203.094 158.984, 202.445 155.208, 198.250 151.033 C 194.670 147.471, 194.127 147.276, 186.263 146.746 C 171.869 145.776, 165.505 141.035, 162.417 128.982 C 161.031 123.572, 160.965 121.718, 161.992 117.039 C 164.163 107.152, 176.184 98, 187 98 C 196.845 98, 205.424 104.397, 209.149 114.514 C 211.153 119.956, 211.391 122.798, 211.765 145.790 C 212.114 167.209, 211.945 171.435, 210.659 173.398 C 209.262 175.530, 208.239 175.760, 197.820 176.279 C 191.594 176.589, 183.800 177.567, 180.500 178.453 C 156.808 184.812, 141.562 201.407, 140.265 222.249 C 138.796 245.852, 150.563 262.450, 173.615 269.293 C 186.959 273.255, 200.480 272.035, 212.265 265.806 C 220.248 261.587, 231.555 250.321, 235.657 242.500 C 239.290 235.575, 243 224.127, 243 219.845 C 243 213.073, 237.647 208, 230.500 208 C 223.232 208, 218.976 212.091, 217.459 220.535 C 215.553 231.148, 207.391 242.295, 198.828 245.979 C 188.919 250.241, 174.940 247.471, 168.652 239.998 C 161.144 231.075, 163.655 215.060, 173.772 207.343 C 180.858 201.939, 187.910 199.926, 201.981 199.290 C 220.868 198.438, 229.361 194.219, 234.195 183.291 C 236.149 178.874, 236.276 176.822, 236.248 150.042 C 236.223 126.579, 235.909 120.165, 234.483 114 C 227.872 85.424, 204.997 70.525, 177 76.560" stroke="none" fill="#0cd15c" fill-rule="evenodd"/></svg>